<?xml version="1.0" encoding="UTF-8"?><svg id="Layer_2" xmlns="http://www.w3.org/2000/svg" width="316.45" height="331.16" viewBox="0 0 316.45 331.16"><defs><style>.cls-1{fill:#fff;}</style></defs><g id="Graphics"><path class="cls-1" d="M95.61,20.87c11.05,5.06,18.15,11.46,19.44,12.43-.59-2.86-2.76-16.6-4.02-25.14,6.44,4.48,21.4,14.85,26.31,18.23C139.35,20.21,146.3.03,146.3.03c0,0,12.54,20.32,14.69,23.62,2.62-2.74,17.62-19.43,21.5-23.65.66,9.6,1.54,23.34,1.75,25.4.77-1.02,6.51-9.07,16.14-16.49-4.18,8.22-6.16,19.56-7.05,28.68-9.47-2.65-19.45-4.07-29.76-4.07-19.78,0-38.34,5.21-54.39,14.33-2.92-8.79-7.49-19.74-13.55-26.98ZM210.88,135.22l-.02-14.13s-6.31-2.03-13.06-7.26c-13.54,2.05-29.95,15.67-29.95,15.67,0,0,5.55,10.51,11.6,21.85,10.66,1.47,26.36-11.97,31.42-16.13ZM224.5,160.86s-1.09-5.85-5.72-11.31l-10.56.26s-14.25,12.25-22.95,12.53c0,0,4.79,8.91,7.2,13.56,4.79-1.04,13.21-4.82,16.6-8.76,0,0,2.24,7.23,1.81,15.75,4.76-2.78,11.33-10.24,13.62-22.04ZM228.84,114.4c-5.33,4.49-9.85,6.97-9.85,6.97l.05,14.2c3.82,4.25,7.59,7.78,10.4,14.19,5.34-9.6,4.33-23.75-.6-35.37ZM230,101.74l.83-6.45c.28-3.56-.63-9.44-5.61-15.56-6.17-6.92-21.69-18.08-29.09-20.75,0,0-.61,7.14-3.16,10.58-14.74-10.65-21.99-13.31-21.99-13.31-16.2,2.31-26.6,8.56-32.26,13.47l4.93,4.2c-9.76,3.01-16.1,11.4-16.1,11.4.06.14,8.72,1.38,8.72,1.38,0,0-.88,10.16,11.84,16.53,10.89,5.45,26.57-1.31,41.32,4.61-9.71-11.2-16.4-16.21-16.4-16.21,0,0-3.86-.8-6.58-.78-3.39.02-8.43.7-13.98-1.46-2.64-1.03-5.73-2.86-8.15-4.38,0,0,6.81-6.99,16.76-8.54,0,0,8.97,2.52,16.08,7.79,4.73-4.6,9.66-4.46,9.66-4.46,0,0-4.88,4.57-3.41,10.09,7.11,6.34,14.81,15.4,14.81,15.4,7.85-4.31,24.91-3.32,28.41.75-4.44-5.75-10.84-10.56-15.8-14.67-.6-2.16-6.01-9.69-6.92-10.37,0,0,5.14,1.59,9.72,5.7,1.33-1.88,3.79-3.79,7.15-4.63,3.46,2.9,4.07,7.34,3.97,8.09-1.56,1.85-3.08,2.62-3.08,2.62l8.3,9,.83-6.45M238.29,107.01c12.66,23.41,15.75,51.45,6.95,79.4-.53-.59-7.23-8.08-10-11.15-1.76,27.32-9.8,48.54-33.27,66.47,0,0-2.23-8.58-3.54-13.95-38.69,28.36-71.97,15.39-81.31,10.73,7.24-33.21,1.63-52.28-3.21-66.82-10.3,16.92-20.85,30.06-31.38,38.94-7.19-16.81-7.75-48.05-1.93-66.5-1.93.52-13.3,4.11-19.61,6.03,2.54-16.94,13.73-39.63,25.55-50.93-2.06-.37-8.13-1.22-12.92-2.02,2.95-6.01,11.52-17.18,24.68-27.66-.38,7.38,2.35,16.2,10.71,20.42-5.3-9.28-5.93-20.74-.41-26.69,5.54-5.97,14.84-3.93,20.77.72-1.1-3.23-3.49-6.96-7.01-9.42,16.38-7.62,36.26-12.04,58.8-8.57,3.47,3.03,7.19,7.3,9.24,9.94.09-1.9-.18-5.53-.78-8.29,9.22,2.18,18.84,5.7,28.82,10.86-17.76-17.71-53.74-23.04-83.77-14.44-7.04,2.02-13.72,4.69-20.01,7.82-6.62.08-10.89,4.13-13.33,7.72-19.22,12.75-33.31,29.52-40.09,43.58,1.51.33,6.06.89,10.27,1.62-8.58,12.26-19.81,35.44-19.07,56.26,1.95-.59,12.44-3.81,17.59-5.47-2.75,18.36-1.95,49.22,9.97,66.86,15-10.63,23.7-21.79,30.93-31.87,1.86,9.07,3.68,25.19-2.72,51.9,5.19,4,42.8,23.76,85.35-2.05l3.56,14.03,4.6-2.99c25.89-16.82,35.83-39.54,39.3-58.04,1.19,1.32,5.9,6.47,7.59,8.19,6.49-17.73,19.48-60.35-10.28-94.6Z"/><path class="cls-1" d="M0,319.85v-34.87h11.05c7.2,0,12.59,4.28,12.59,11.65s-5.31,11.82-12.59,11.82h-4.28v11.39H0ZM6.77,301.95h3.94c3.43,0,5.91-1.88,5.91-5.31s-2.48-5.23-5.91-5.23h-3.94v10.54ZM102.71,296.89h6.34v22.96h-6.34v-22.96ZM105.97,293.81c-2.23,0-3.94-1.71-3.94-3.85s1.71-3.94,3.94-3.94,3.94,1.71,3.94,3.94-1.71,3.85-3.94,3.85M93.2,319.85h6.34v-14.65c0-5.23-3.34-8.91-8.22-8.91-1.71,0-4.45.26-6.68,3.43l-.17.26-.17-.26c-1.54-2.31-3.77-3.43-6.42-3.43-4.28,0-5.65,3.6-5.65,3.6l-.69-3h-5.57v22.96h6.34v-13.45c0-2.57,1.29-4.11,3.77-4.11,2.14,0,3.51,1.54,3.51,4.03v13.54h6.34v-13.45c0-2.57,1.28-4.11,3.77-4.11,2.14,0,3.51,1.54,3.51,4.03v13.54ZM143.83,319.85v-11.56c0-3.68,2.14-5.57,5.23-5.57.77,0,1.46.09,2.23.26v-6.08c-.6-.17-1.2-.26-1.8-.26-2.74,0-4.8,1.46-5.83,3.6l-.69-3.34h-5.48v22.96h6.34ZM32.13,319.85v-11.56c0-3.68,2.14-5.57,5.22-5.57.77,0,1.46.09,2.23.26v-6.08c-.6-.17-1.2-.26-1.8-.26-2.74,0-4.8,1.46-5.83,3.6l-.68-3.34h-5.48v22.96h6.34ZM123.87,320.45c-7.11,0-12.34-4.88-12.34-11.99,0-6.42,4.71-12.16,12.16-12.16,5.57,0,11.31,4.2,11.31,11.99,0,.6,0,1.37-.17,2.23h-16.79c.6,2.57,2.91,4.28,5.74,4.28,2.57,0,4.54-.94,6.17-2.66l3.85,3.94c-2.48,2.83-6.08,4.37-9.94,4.37M123.53,301.86c-2.66,0-4.88,1.54-5.4,4.03h10.62c-.51-2.4-2.66-4.03-5.23-4.03M52.34,320.45c-7.11,0-12.34-4.88-12.34-11.99,0-6.42,4.71-12.16,12.16-12.16,5.57,0,11.31,4.2,11.31,11.99,0,.6,0,1.37-.17,2.23h-16.79c.6,2.57,2.91,4.28,5.74,4.28,2.57,0,4.54-.94,6.17-2.66l3.85,3.94c-2.48,2.83-6.08,4.37-9.94,4.37M52,301.86c-2.65,0-4.88,1.54-5.4,4.03h10.62c-.51-2.4-2.66-4.03-5.23-4.03M279.53,320.45c4.97,0,11.22-2.74,11.22-11.31v-12.25h-6.34v11.82c0,3.68-2.06,5.65-4.88,5.65-3.08,0-4.88-1.71-4.88-5.65v-11.82h-6.34v12.25c0,8.57,6.17,11.31,11.22,11.31M224.96,320.45c-6.08,0-11.39-5.57-11.39-12.08s5.31-11.82,11.39-11.82c3.43,0,5.74,1.2,7.11,3.34l.69-3h5.57v22.96h-5.57l-.69-2.91c-1.37,2.06-3.94,3.51-7.11,3.51M226.24,302.29c-3.43,0-6,2.57-6,6.08s2.57,6,6,6,5.91-2.66,5.91-6c0-3.51-2.57-6.08-5.91-6.08M186.58,319.85v-6.42h-14.73v-28.44h-6.77v34.86h21.5ZM200.29,320.45c-7.11,0-12.34-4.88-12.34-11.99,0-6.42,4.71-12.16,12.16-12.16,5.57,0,11.31,4.2,11.31,11.99,0,.6,0,1.37-.17,2.23h-16.79c.6,2.57,2.91,4.28,5.74,4.28,2.57,0,4.54-.94,6.17-2.66l3.85,3.94c-2.48,2.83-6.08,4.37-9.94,4.37M199.94,301.86c-2.66,0-4.88,1.54-5.4,4.03h10.62c-.51-2.4-2.66-4.03-5.22-4.03M305.31,320.45c-7.11,0-12.34-4.88-12.34-11.99,0-6.42,4.71-12.16,12.17-12.16,5.57,0,11.31,4.2,11.31,11.99,0,.6,0,1.37-.17,2.23h-16.79c.6,2.57,2.91,4.28,5.74,4.28,2.57,0,4.54-.94,6.17-2.66l3.85,3.94c-2.48,2.83-6.08,4.37-9.94,4.37M304.97,301.86c-2.65,0-4.88,1.54-5.4,4.03h10.62c-.51-2.4-2.66-4.03-5.23-4.03M253.31,302.29c-3.34,0-6,2.57-6,6.08s2.66,6,6,6,6-2.66,6-6c0-3.51-2.66-6.08-6-6.08M258.97,299.8l.68-2.91h5.57v21.93c0,4.28-1.2,7.28-4.03,9.51-2.14,1.63-5.05,2.83-8.57,2.83-4.8,0-8.22-1.63-10.96-4.28l3.51-4.88c1.71,1.63,4.03,3.08,7.02,3.08,4.71,0,6.77-2.31,6.77-5.74v-1.63c-1.88,1.97-4.11,2.74-6.6,2.74-6.51,0-11.65-5.31-11.65-12.08s5.31-11.82,11.82-11.82c2.66,0,5.05,1.29,6.42,3.26"/></g></svg>