<?xml version="1.0" encoding="UTF-8"?><svg id="Layer_2" xmlns="http://www.w3.org/2000/svg" width="355.28" height="63.31" viewBox="0 0 355.28 63.31"><defs><style>.cls-1{fill:#fff;}</style></defs><g id="Layer_1-2"><polygon class="cls-1" points="0 4.48 5.6 4.48 5.6 19.81 10.13 19.81 10.13 4.48 15.7 4.48 15.7 .57 0 .57 0 4.48"/><polygon class="cls-1" points="31.36 7.67 24.7 7.67 24.7 .57 20.23 .57 20.23 19.81 24.7 19.81 24.7 11.49 31.36 11.49 31.36 19.81 35.84 19.81 35.84 .57 31.36 .57 31.36 7.67"/><polygon class="cls-1" points="46.37 11.67 55.41 11.67 55.41 7.82 46.37 7.82 46.37 4.48 56.22 4.48 56.22 .57 41.95 .57 41.95 19.81 56.68 19.81 56.68 15.84 46.37 15.84 46.37 11.67"/><path class="cls-1" d="M80.62,0c-2.74,0-4.86.76-6.31,2.25-1.95,1.76-2.93,4.42-2.93,7.91,0,3.42.98,6.08,2.92,7.9,1.46,1.51,3.59,2.27,6.32,2.27s4.86-.76,6.31-2.26c1.93-1.83,2.91-4.49,2.91-7.9,0-3.49-.98-6.15-2.9-7.9C85.48.76,83.35,0,80.62,0ZM84.05,14.82c-.85,1.07-1.98,1.59-3.43,1.59s-2.58-.52-3.45-1.59c-.87-1.08-1.31-2.64-1.31-4.66s.44-3.58,1.31-4.66c.86-1.07,1.99-1.59,3.45-1.59s2.58.52,3.43,1.59c.86,1.08,1.29,2.65,1.29,4.65s-.43,3.58-1.28,4.66Z"/><polygon class="cls-1" points="95.09 19.81 99.58 19.81 99.58 12 107.75 12 107.75 8.15 99.58 8.15 99.58 4.48 108.91 4.48 108.91 .59 95.09 .59 95.09 19.81"/><polygon class="cls-1" points="113.79 19.81 118.28 19.81 118.28 12 126.45 12 126.45 8.15 118.28 8.15 118.28 4.48 127.61 4.48 127.61 .59 113.79 .59 113.79 19.81"/><rect class="cls-1" x="132.19" y=".57" width="4.48" height="19.24"/><path class="cls-1" d="M154.45,13.08c-.25.91-.56,1.6-.93,2.05-.66.82-1.6,1.22-2.88,1.22s-2.24-.47-3.05-1.45c-.81-.98-1.22-2.49-1.22-4.5s.39-3.58,1.17-4.66c.76-1.07,1.77-1.58,3.1-1.58s2.27.37,2.91,1.11c.36.42.67,1.06.91,1.9l.06.22h4.45s-.02-.33-.02-.33c-.06-1.22-.51-2.44-1.34-3.63-1.5-2.13-3.9-3.21-7.12-3.21-2.42,0-4.44.8-6.01,2.39-1.79,1.81-2.7,4.41-2.7,7.73,0,3.07.8,5.53,2.38,7.3,1.59,1.78,3.79,2.68,6.55,2.68,2.23,0,4.1-.67,5.54-1.99,1.43-1.31,2.33-3.04,2.67-5.13l.06-.36h-4.46s-.06.23-.06.23Z"/><rect class="cls-1" x="163.85" y=".57" width="4.48" height="19.24"/><path class="cls-1" d="M179.67.57l-6.87,19.24h4.73s1.29-3.83,1.29-3.83h6.41s1.2,3.83,1.2,3.83h4.88s-6.81-19.24-6.81-19.24h-4.83ZM180.07,12.15l1.97-6.01,1.91,6.01h-3.88Z"/><polygon class="cls-1" points="200.33 .57 195.82 .57 195.82 19.81 209.55 19.81 209.55 15.84 200.33 15.84 200.33 .57"/><path class="cls-1" d="M238.43,9.47c.4-.25.72-.53.96-.82.62-.74.93-1.73.93-2.94s-.31-2.18-.92-3.03c-1.01-1.36-2.72-2.07-5.1-2.11h-9.35s0,19.24,0,19.24h8.75c.97,0,1.88-.09,2.71-.26.85-.18,1.61-.51,2.24-.99.56-.42,1.03-.94,1.4-1.55.58-.92.88-1.98.88-3.13,0-1.12-.26-2.1-.78-2.9-.41-.64-.99-1.15-1.72-1.51ZM235.99,6.12c0,.67-.2,1.12-.61,1.37-.46.28-1.08.42-1.84.42h-4.26s0-3.49,0-3.49h3.78c.86,0,1.58.09,2.1.27.56.23.82.69.82,1.43ZM229.28,11.61h4.32c.76,0,1.35.11,1.76.29.68.31,1.02.87,1.02,1.71,0,1.03-.35,1.7-1.06,2.05-.41.2-1.01.3-1.77.3h-4.26s0-4.35,0-4.35Z"/><polygon class="cls-1" points="251 11.67 260.04 11.67 260.04 7.82 251 7.82 251 4.48 260.85 4.48 260.85 .57 246.58 .57 246.58 19.81 261.31 19.81 261.31 15.84 251 15.84 251 11.67"/><polygon class="cls-1" points="271.15 11.67 280.2 11.67 280.2 7.82 271.15 7.82 271.15 4.48 281.01 4.48 281.01 .57 266.73 .57 266.73 19.81 281.46 19.81 281.46 15.84 271.15 15.84 271.15 11.67"/><path class="cls-1" d="M302.3,17.9c-.06-.28-.09-.83-.09-1.66v-1.25c0-1.37-.19-2.38-.58-3.06-.29-.52-.75-.96-1.34-1.3.77-.39,1.35-.96,1.73-1.69.47-.89.7-1.82.7-2.75,0-.77-.13-1.47-.38-2.08-.25-.6-.59-1.16-1.01-1.65-.52-.61-1.16-1.07-1.9-1.38-.74-.31-1.79-.48-3.13-.51h-9.44s0,19.24,0,19.24h4.42s0-7.3,0-7.3h3.71c1.04,0,1.78.18,2.13.51.24.23.54.79.55,2.15l.03,1.73c0,.57.07,1.12.17,1.66.05.26.14.6.26,1.02l.06.22h4.82v-.95s-.15-.09-.15-.09c-.3-.18-.48-.46-.57-.87ZM291.28,4.42h4.21c.79,0,1.38.1,1.75.29.64.33.96.99.96,2,0,.92-.32,1.51-.98,1.82-.4.18-1.01.27-1.84.27h-4.1s0-4.38,0-4.38Z"/><path class="cls-1" d="M326.98,0c-2.74,0-4.86.76-6.31,2.25-1.95,1.76-2.93,4.42-2.93,7.91,0,3.42.98,6.08,2.92,7.9,1.46,1.51,3.59,2.27,6.32,2.27,2.73,0,4.86-.76,6.31-2.26,1.93-1.83,2.91-4.49,2.91-7.9,0-3.49-.98-6.15-2.9-7.9C331.84.76,329.72,0,326.98,0ZM330.41,14.82c-.85,1.07-1.98,1.59-3.43,1.59s-2.58-.52-3.45-1.59c-.87-1.08-1.31-2.64-1.31-4.66s.44-3.58,1.31-4.66c.86-1.07,1.99-1.59,3.45-1.59s2.58.52,3.43,1.59c.86,1.08,1.29,2.65,1.29,4.65,0,2.02-.43,3.58-1.28,4.66Z"/><polygon class="cls-1" points="341.46 19.81 345.94 19.81 345.94 12 354.11 12 354.11 8.15 345.94 8.15 345.94 4.48 355.28 4.48 355.28 .59 341.46 .59 341.46 19.81"/><polygon class="cls-1" points="7.55 47.49 13.14 47.49 13.14 62.81 17.68 62.81 17.68 47.49 23.25 47.49 23.25 43.58 7.55 43.58 7.55 47.49"/><polygon class="cls-1" points="38.9 50.68 32.25 50.68 32.25 43.58 27.78 43.58 27.78 62.81 32.25 62.81 32.25 54.5 38.9 54.5 38.9 62.81 43.39 62.81 43.39 43.58 38.9 43.58 38.9 50.68"/><polygon class="cls-1" points="53.92 54.68 62.96 54.68 62.96 50.83 53.92 50.83 53.92 47.49 63.77 47.49 63.77 43.58 49.49 43.58 49.49 62.81 64.22 62.81 64.22 58.85 53.92 58.85 53.92 54.68"/><path class="cls-1" d="M92.8,45.09c-1.16-1.01-2.74-1.52-4.67-1.52h-8.42s0,19.24,0,19.24h4.48s0-6.7,0-6.7h3.64c2.13,0,3.8-.48,4.96-1.43,1.18-.97,1.78-2.62,1.78-4.9,0-2.1-.6-3.68-1.78-4.69ZM84.19,47.43h3.32c.84,0,1.5.18,1.95.55.43.35.65.97.65,1.83s-.22,1.51-.65,1.89c-.45.4-1.11.59-1.95.59h-3.32s0-4.86,0-4.86Z"/><path class="cls-1" d="M115.3,60.91c-.06-.28-.09-.83-.09-1.66v-1.25c0-1.37-.19-2.38-.58-3.06-.29-.52-.75-.96-1.34-1.3.77-.39,1.35-.96,1.73-1.69.47-.89.7-1.82.7-2.75,0-.77-.13-1.47-.38-2.08-.25-.6-.59-1.16-1.01-1.65-.52-.61-1.16-1.07-1.9-1.38-.74-.31-1.79-.48-3.13-.51h-9.44s0,19.24,0,19.24h4.42s0-7.3,0-7.3h3.71c1.04,0,1.78.18,2.13.51.24.23.54.79.55,2.15l.03,1.73c0,.57.07,1.12.17,1.66.05.26.14.6.26,1.02l.06.22h4.82v-.95s-.15-.09-.15-.09c-.3-.18-.48-.46-.57-.87ZM104.28,47.43h4.21c.79,0,1.38.1,1.75.29.64.33.96.99.96,2,0,.92-.32,1.51-.98,1.82-.4.18-1.01.27-1.84.27h-4.1s0-4.38,0-4.38Z"/><polygon class="cls-1" points="125.89 54.68 134.93 54.68 134.93 50.83 125.89 50.83 125.89 47.49 135.74 47.49 135.74 43.58 121.47 43.58 121.47 62.81 136.19 62.81 136.19 58.85 125.89 58.85 125.89 54.68"/><path class="cls-1" d="M150.79,57.15l-3.14-13.57h-6.21s0,19.24,0,19.24h4.24s0-12.98,0-13.03l2.92,13.03h4.27s2.94-13.05,2.94-13.05c0,.05,0,13.05,0,13.05h4.24s0-19.24,0-19.24h-6.15s-3.12,13.57-3.12,13.57Z"/><rect class="cls-1" x="165.65" y="43.58" width="4.48" height="19.24"/><polygon class="cls-1" points="180.57 54.68 189.62 54.68 189.62 50.83 180.57 50.83 180.57 47.49 190.42 47.49 190.42 43.58 176.15 43.58 176.15 62.81 190.88 62.81 190.88 58.85 180.57 58.85 180.57 54.68"/><path class="cls-1" d="M211.72,60.91c-.06-.28-.09-.83-.09-1.66v-1.25c0-1.37-.19-2.38-.58-3.06-.29-.52-.75-.96-1.34-1.3.77-.39,1.35-.96,1.73-1.69.47-.89.7-1.82.7-2.75,0-.77-.13-1.47-.38-2.08-.25-.6-.59-1.16-1.01-1.65-.52-.61-1.16-1.07-1.9-1.38-.74-.31-1.79-.48-3.13-.51h-9.44s0,19.24,0,19.24h4.42s0-7.3,0-7.3h3.71c1.04,0,1.78.18,2.13.51.24.23.54.79.55,2.15l.03,1.73c0,.57.07,1.12.17,1.66.05.26.14.6.26,1.02l.06.22h4.82v-.95s-.15-.09-.15-.09c-.3-.18-.48-.46-.57-.87ZM200.7,47.43h4.21c.79,0,1.38.1,1.75.29.64.33.96.99.96,2,0,.92-.32,1.51-.98,1.82-.4.18-1.01.27-1.84.27h-4.1s0-4.38,0-4.38Z"/><polygon class="cls-1" points="232.36 43.58 227.85 43.58 227.85 62.81 241.58 62.81 241.58 58.85 232.36 58.85 232.36 43.58"/><polygon class="cls-1" points="251.09 54.68 260.13 54.68 260.13 50.83 251.09 50.83 251.09 47.49 260.94 47.49 260.94 43.58 246.67 43.58 246.67 62.81 261.4 62.81 261.4 58.85 251.09 58.85 251.09 54.68"/><path class="cls-1" d="M272.13,43.58l-6.87,19.24h4.73s1.29-3.83,1.29-3.83h6.41s1.2,3.83,1.2,3.83h4.88s-6.81-19.24-6.81-19.24h-4.83ZM272.53,55.16l1.97-6.01,1.91,6.01h-3.88Z"/><path class="cls-1" d="M296.94,55.93h4.24c-.22.98-.68,1.8-1.38,2.42-.77.7-1.78,1.05-3,1.05s-2.37-.45-3.35-1.35c-.97-.89-1.46-2.45-1.46-4.64,0-2.19.46-3.84,1.37-4.91.91-1.07,2.04-1.59,3.46-1.59.74,0,1.41.13,2.01.39,1.06.47,1.71,1.27,1.98,2.45l.06.24h4.42s-.04-.35-.04-.35c-.22-1.87-1.09-3.44-2.58-4.69-1.49-1.24-3.47-1.87-5.9-1.87-2.81,0-5.1.95-6.81,2.83-1.7,1.87-2.57,4.38-2.57,7.46,0,3.05.86,5.49,2.54,7.26,1.63,1.77,3.74,2.66,6.29,2.66,1.55,0,2.88-.33,3.95-.99.51-.31,1.06-.79,1.66-1.44l.33,1.94h3.15s0-10.61,0-10.61h-8.37s0,3.73,0,3.73Z"/><path class="cls-1" d="M322.32,55.33c0,1.23-.14,2.12-.43,2.68-.42.93-1.33,1.38-2.79,1.38s-2.38-.45-2.81-1.4c-.28-.54-.42-1.44-.42-2.66v-11.75s-4.57,0-4.57,0v11.75c0,2.02.32,3.63.96,4.78,1.21,2.11,3.51,3.19,6.84,3.19,3.33,0,5.63-1.07,6.83-3.19.64-1.14.96-2.75.96-4.77v-11.75s-4.57,0-4.57,0v11.75Z"/><polygon class="cls-1" points="337.42 58.85 337.42 54.68 346.47 54.68 346.47 50.83 337.42 50.83 337.42 47.49 347.27 47.49 347.27 43.58 333 43.58 333 62.81 347.73 62.81 347.73 58.85 337.42 58.85"/></g></svg>