<?xml version="1.0" encoding="UTF-8"?><svg id="Layer_2" xmlns="http://www.w3.org/2000/svg" width="667.96" height="15.4" viewBox="0 0 667.96 15.4"><defs><style>.cls-1{fill:#fff;}</style></defs><g id="Graphics"><path class="cls-1" d="M11.79.44v2.58h-4.35v11.97h-3.06V3.02H0V.44h11.79Z"/><path class="cls-1" d="M24.48,15v-6.5h-5.69v6.5h-3.01V.44h3.01v5.55h5.69V.44h3.02v14.55h-3.02Z"/><path class="cls-1" d="M42.77,8.64h-7.07v3.74h8.06v2.62h-11.03V.44h10.67v2.58h-7.7v3.09h7.07v2.53Z"/><path class="cls-1" d="M62.83,15.4c-2.08,0-3.67-.57-4.77-1.7-1.47-1.39-2.21-3.39-2.21-6s.74-4.67,2.21-6c1.1-1.13,2.69-1.7,4.77-1.7s3.67.57,4.77,1.7c1.47,1.34,2.2,3.34,2.2,6s-.73,4.61-2.2,6c-1.1,1.13-2.69,1.7-4.77,1.7ZM65.71,11.49c.7-.89,1.06-2.15,1.06-3.79s-.35-2.89-1.06-3.79c-.71-.89-1.66-1.34-2.87-1.34s-2.17.44-2.88,1.33c-.72.89-1.08,2.15-1.08,3.79s.36,2.9,1.08,3.79c.72.89,1.68,1.33,2.88,1.33s2.16-.44,2.87-1.33Z"/><path class="cls-1" d="M84.73,3.02h-7.3v3.35h6.39v2.53h-6.39v6.1h-3.02V.46h10.32v2.56Z"/><path class="cls-1" d="M99.17,3.02h-7.3v3.35h6.39v2.53h-6.39v6.1h-3.02V.46h10.32v2.56Z"/><path class="cls-1" d="M103.19.44h3.02v14.55h-3.02V.44Z"/><path class="cls-1" d="M121.65,13.91c-1.09.99-2.47,1.49-4.17,1.49-2.09,0-3.74-.67-4.94-2.01-1.2-1.35-1.8-3.2-1.8-5.55,0-2.54.68-4.5,2.04-5.87,1.18-1.2,2.69-1.8,4.52-1.8,2.45,0,4.24.8,5.37,2.41.63.9.96,1.81,1.01,2.71h-3.04c-.2-.7-.45-1.22-.76-1.58-.55-.63-1.37-.95-2.46-.95s-1.98.45-2.62,1.34c-.64.89-.96,2.15-.96,3.79s.34,2.85,1.01,3.67,1.53,1.22,2.57,1.22,1.88-.35,2.44-1.05c.31-.37.57-.94.77-1.69h3.01c-.26,1.59-.93,2.88-2.01,3.87Z"/><path class="cls-1" d="M128.1.44h3.02v14.55h-3.02V.44Z"/><path class="cls-1" d="M144.68,12h-5.36l-1.01,2.99h-3.18l5.19-14.55h3.44l5.15,14.55h-3.3l-.94-2.99ZM143.83,9.5l-1.82-5.73-1.88,5.73h3.69Z"/><path class="cls-1" d="M152.95.44h3.04v11.94h7.21v2.62h-10.25V.44Z"/><path class="cls-1" d="M187.33,15h-3.04l-5.94-10.34v10.34h-2.83V.44h3.19l5.8,10.16V.44h2.83v14.55Z"/><path class="cls-1" d="M198.91,15.4c-2.08,0-3.67-.57-4.77-1.7-1.47-1.39-2.21-3.39-2.21-6s.74-4.67,2.21-6c1.1-1.13,2.69-1.7,4.77-1.7s3.67.57,4.77,1.7c1.47,1.34,2.2,3.34,2.2,6s-.73,4.61-2.2,6c-1.1,1.13-2.69,1.7-4.77,1.7ZM201.79,11.49c.7-.89,1.06-2.15,1.06-3.79s-.35-2.89-1.06-3.79c-.71-.89-1.66-1.34-2.87-1.34s-2.17.44-2.88,1.33c-.72.89-1.08,2.15-1.08,3.79s.36,2.9,1.08,3.79c.72.89,1.68,1.33,2.88,1.33s2.16-.44,2.87-1.33Z"/><path class="cls-1" d="M222.29,15h-3.04l-5.94-10.34v10.34h-2.83V.44h3.19l5.8,10.16V.44h2.83v14.55Z"/><path class="cls-1" d="M243.92,12h-5.36l-1.01,2.99h-3.18l5.19-14.55h3.44l5.15,14.55h-3.3l-.94-2.99ZM243.07,9.5l-1.82-5.73-1.88,5.73h3.69Z"/><path class="cls-1" d="M252.19.44h3.04v11.94h7.21v2.62h-10.25V.44Z"/><path class="cls-1" d="M276.71,13.91c-1.09.99-2.47,1.49-4.17,1.49-2.09,0-3.74-.67-4.94-2.01-1.2-1.35-1.8-3.2-1.8-5.55,0-2.54.68-4.5,2.04-5.87,1.18-1.2,2.69-1.8,4.52-1.8,2.45,0,4.24.8,5.37,2.41.63.9.96,1.81,1.01,2.71h-3.04c-.2-.7-.45-1.22-.76-1.58-.55-.63-1.37-.95-2.46-.95s-1.98.45-2.62,1.34c-.64.89-.96,2.15-.96,3.79s.34,2.85,1.01,3.67,1.53,1.22,2.57,1.22,1.88-.35,2.44-1.05c.31-.37.57-.94.77-1.69h3.01c-.26,1.59-.93,2.88-2.01,3.87Z"/><path class="cls-1" d="M297.95,15h-6.59V.44h7.07c1.78.03,3.05.54,3.79,1.55.45.62.67,1.36.67,2.22s-.22,1.6-.67,2.14c-.25.3-.62.58-1.11.83.74.27,1.3.7,1.68,1.28s.57,1.3.57,2.13-.22,1.64-.65,2.32c-.28.45-.62.84-1.04,1.15-.47.36-1.02.6-1.65.73-.64.13-1.32.2-2.07.2ZM299.39,5.81c.39-.24.59-.66.59-1.27,0-.68-.26-1.13-.79-1.34-.45-.15-1.03-.23-1.74-.23h-3.2v3.21h3.57c.64,0,1.16-.12,1.56-.36ZM297.88,8.59h-3.62v3.88h3.57c.64,0,1.14-.09,1.49-.26.64-.32.97-.92.97-1.82,0-.76-.31-1.28-.94-1.56-.35-.16-.84-.24-1.47-.25Z"/><path class="cls-1" d="M318.17,8.64h-7.07v3.74h8.06v2.62h-11.03V.44h10.67v2.58h-7.7v3.09h7.07v2.53Z"/><path class="cls-1" d="M333.8,8.64h-7.07v3.74h8.06v2.62h-11.03V.44h10.67v2.58h-7.7v3.09h7.07v2.53Z"/><path class="cls-1" d="M345.49,9.29h-3.14v5.71h-2.97V.44h7.14c1.02.02,1.8.15,2.35.38.55.23,1.02.57,1.4,1.02.32.37.57.78.75,1.22.18.45.28.96.28,1.53,0,.69-.17,1.37-.52,2.04-.35.67-.92,1.14-1.73,1.42.67.27,1.15.65,1.43,1.15s.42,1.26.42,2.28v.98c0,.66.03,1.12.08,1.35.08.38.26.65.55.83v.37h-3.35c-.09-.32-.16-.58-.2-.78-.08-.41-.12-.83-.13-1.25l-.02-1.35c-.01-.93-.18-1.55-.51-1.86-.33-.31-.94-.46-1.83-.46ZM347.34,6.64c.61-.28.91-.82.91-1.64,0-.88-.29-1.47-.88-1.78-.33-.17-.82-.26-1.48-.26h-3.53v3.91h3.45c.68,0,1.2-.08,1.54-.24Z"/><path class="cls-1" d="M370.62,15.4c-2.08,0-3.67-.57-4.77-1.7-1.47-1.39-2.21-3.39-2.21-6s.74-4.67,2.21-6c1.1-1.13,2.69-1.7,4.77-1.7s3.67.57,4.77,1.7c1.47,1.34,2.2,3.34,2.2,6s-.73,4.61-2.2,6c-1.1,1.13-2.69,1.7-4.77,1.7ZM373.49,11.49c.7-.89,1.06-2.15,1.06-3.79s-.35-2.89-1.06-3.79c-.71-.89-1.66-1.34-2.87-1.34s-2.17.44-2.88,1.33c-.72.89-1.08,2.15-1.08,3.79s.36,2.9,1.08,3.79c.72.89,1.68,1.33,2.88,1.33s2.16-.44,2.87-1.33Z"/><path class="cls-1" d="M392.52,3.02h-7.3v3.35h6.39v2.53h-6.39v6.1h-3.02V.46h10.32v2.56Z"/><path class="cls-1" d="M415.39.44v2.58h-4.35v11.97h-3.06V3.02h-4.37V.44h11.79Z"/><path class="cls-1" d="M428.08,15v-6.5h-5.69v6.5h-3.01V.44h3.01v5.55h5.69V.44h3.02v14.55h-3.02Z"/><path class="cls-1" d="M446.38,8.64h-7.07v3.74h8.06v2.62h-11.03V.44h10.67v2.58h-7.7v3.09h7.07v2.53Z"/><path class="cls-1" d="M466.18,9.76h-3.09v5.23h-3.02V.44h6.34c1.46,0,2.63.38,3.49,1.13.87.75,1.3,1.91,1.3,3.48,0,1.72-.43,2.93-1.3,3.64-.87.71-2.11,1.07-3.72,1.07ZM467.6,6.73c.4-.35.59-.9.59-1.66s-.2-1.3-.6-1.62-.96-.48-1.67-.48h-2.83v4.28h2.83c.72,0,1.28-.17,1.68-.52Z"/><path class="cls-1" d="M481.6,9.29h-3.14v5.71h-2.97V.44h7.14c1.02.02,1.8.15,2.35.38.55.23,1.02.57,1.4,1.02.32.37.57.78.75,1.22.18.45.28.96.28,1.53,0,.69-.17,1.37-.52,2.04-.35.67-.92,1.14-1.73,1.42.67.27,1.15.65,1.43,1.15s.42,1.26.42,2.28v.98c0,.66.03,1.12.08,1.35.08.38.26.65.55.83v.37h-3.35c-.09-.32-.16-.58-.2-.78-.08-.41-.12-.83-.13-1.25l-.02-1.35c-.01-.93-.18-1.55-.51-1.86-.33-.31-.94-.46-1.83-.46ZM483.45,6.64c.61-.28.91-.82.91-1.64,0-.88-.29-1.47-.88-1.78-.33-.17-.82-.26-1.48-.26h-3.53v3.91h3.45c.68,0,1.2-.08,1.54-.24Z"/><path class="cls-1" d="M502.37,8.64h-7.07v3.74h8.06v2.62h-11.03V.44h10.67v2.58h-7.7v3.09h7.07v2.53Z"/><path class="cls-1" d="M510.73,15h-2.83V.44h4.42l2.65,11.44,2.63-11.44h4.37v14.55h-2.83V5.15c0-.28,0-.68,0-1.19,0-.51,0-.9,0-1.18l-2.75,12.21h-2.95l-2.73-12.21c0,.28,0,.67,0,1.18,0,.51,0,.91,0,1.19v9.84Z"/><path class="cls-1" d="M527,.44h3.02v14.55h-3.02V.44Z"/><path class="cls-1" d="M545.27,8.64h-7.07v3.74h8.06v2.62h-11.03V.44h10.67v2.58h-7.7v3.09h7.07v2.53Z"/><path class="cls-1" d="M556.96,9.29h-3.14v5.71h-2.97V.44h7.14c1.02.02,1.8.15,2.35.38.55.23,1.02.57,1.4,1.02.32.37.57.78.75,1.22.18.45.28.96.28,1.53,0,.69-.17,1.37-.52,2.04-.35.67-.92,1.14-1.73,1.42.67.27,1.15.65,1.43,1.15s.42,1.26.42,2.28v.98c0,.66.03,1.12.08,1.35.08.38.26.65.55.83v.37h-3.35c-.09-.32-.16-.58-.2-.78-.08-.41-.12-.83-.13-1.25l-.02-1.35c-.01-.93-.18-1.55-.51-1.86-.33-.31-.94-.46-1.83-.46ZM558.8,6.64c.61-.28.91-.82.91-1.64,0-.88-.29-1.47-.88-1.78-.33-.17-.82-.26-1.48-.26h-3.53v3.91h3.45c.68,0,1.2-.08,1.54-.24Z"/><path class="cls-1" d="M575.65.44h3.04v11.94h7.21v2.62h-10.25V.44Z"/><path class="cls-1" d="M600.14,8.64h-7.07v3.74h8.06v2.62h-11.03V.44h10.67v2.58h-7.7v3.09h7.07v2.53Z"/><path class="cls-1" d="M614.46,12h-5.36l-1.01,2.99h-3.18l5.19-14.55h3.44l5.15,14.55h-3.3l-.94-2.99ZM613.61,9.5l-1.82-5.73-1.88,5.73h3.69Z"/><path class="cls-1" d="M631.12,14.64c-.8.49-1.79.74-2.96.74-1.93,0-3.51-.67-4.74-2-1.28-1.34-1.93-3.18-1.93-5.51s.65-4.24,1.94-5.67c1.3-1.42,3.01-2.13,5.14-2.13,1.85,0,3.34.47,4.46,1.41,1.12.94,1.77,2.11,1.93,3.51h-2.99c-.23-.99-.79-1.69-1.69-2.08-.5-.22-1.06-.33-1.67-.33-1.17,0-2.13.44-2.89,1.33-.75.89-1.13,2.22-1.13,3.99s.41,3.06,1.22,3.8c.82.74,1.74,1.12,2.78,1.12s1.86-.29,2.51-.88c.65-.59,1.05-1.36,1.2-2.32h-3.37v-2.43h6.06v7.81h-2.01l-.31-1.82c-.59.69-1.11,1.18-1.58,1.46Z"/><path class="cls-1" d="M648.64,9.39V.44h3.09v8.94c0,1.55-.24,2.75-.72,3.61-.9,1.58-2.6,2.37-5.12,2.37s-4.23-.79-5.13-2.37c-.48-.86-.72-2.07-.72-3.61V.44h3.09v8.94c0,1,.12,1.73.36,2.19.37.82,1.17,1.22,2.41,1.22s2.03-.41,2.4-1.22c.24-.46.36-1.19.36-2.19Z"/><path class="cls-1" d="M666.97,8.64h-7.07v3.74h8.06v2.62h-11.03V.44h10.67v2.58h-7.7v3.09h7.07v2.53Z"/></g></svg>