<?xml version="1.0" encoding="UTF-8"?><svg xmlns="http://www.w3.org/2000/svg" width="459.97" height="255.51" xmlns:xlink="http://www.w3.org/1999/xlink" viewBox="0 0 459.97 255.51"><defs><style>.cls-1,.cls-2,.cls-3,.cls-4,.cls-5,.cls-6,.cls-7,.cls-8,.cls-9,.cls-10,.cls-11,.cls-12,.cls-13,.cls-14,.cls-15,.cls-16,.cls-17,.cls-18,.cls-19,.cls-20{fill:none;}.cls-21{mask:url(#mask);}.cls-22,.cls-23{fill:#010004;}.cls-2{stroke-width:.47px;}.cls-2,.cls-3,.cls-4,.cls-5,.cls-6,.cls-7,.cls-8,.cls-9,.cls-10,.cls-11,.cls-12,.cls-13,.cls-14,.cls-15,.cls-16,.cls-17,.cls-18,.cls-19,.cls-20{stroke:#010004;stroke-miterlimit:10;}.cls-3{stroke-width:.45px;}.cls-4{stroke-width:.46px;}.cls-5{stroke-width:.48px;}.cls-6{stroke-width:.49px;}.cls-7{stroke-width:.49px;}.cls-23,.cls-24{mix-blend-mode:multiply;}.cls-8{stroke-width:.27px;}.cls-9{stroke-width:.31px;}.cls-10{stroke-width:.32px;}.cls-11{stroke-width:.25px;}.cls-12{stroke-width:.4px;}.cls-13{stroke-width:.41px;}.cls-14{stroke-width:.42px;}.cls-15{stroke-width:.44px;}.cls-16{stroke-width:.43px;}.cls-17{stroke-width:.33px;}.cls-18{stroke-width:.37px;}.cls-19{stroke-width:.39px;}.cls-20{stroke-width:.38px;}.cls-25{isolation:isolate;}.cls-26{clip-path:url(#clippath-1);}.cls-27{clip-path:url(#clippath-2);}.cls-28{fill:#fff;}.cls-29{fill:#fdc578;}.cls-30{clip-path:url(#clippath);}</style><clipPath id="clippath"><path class="cls-1" d="M194.5,40.13c-7.17-20.96-16.9-32.65-16.9-32.65-14.4,13.59-47.53,26.43-105.13,6.02C14.87-6.92,0,25.7,0,37.5c0,6.3,1.97,21.31,21.91,21.31,12.61,0,19.84-11.61,19.84-18.34s-5.38-15.3-5.38-15.3c9.03,0,13.14,0,27.73,6.03l-11.98,27.3c.44,1.01.89,2.05,1.35,3.13l12.93-29.46c1.88.8,3.92,1.69,6.15,2.68l-15.44,35.19c.44,1.03.9,2.07,1.36,3.13l16.37-37.3c1.9.85,3.93,1.78,6.11,2.77l-18.84,42.92c.45,1.03.9,2.08,1.36,3.12l19.75-45c1.92.89,3.95,1.82,6.09,2.82l-22.19,50.56c.45,1.04.91,2.08,1.36,3.12l23.09-52.63c1.93.88,3.97,1.81,6.11,2.77l-25.55,58.21c.46,1.04.91,2.08,1.37,3.11l26.46-60.31c1.99.87,4.05,1.75,6.18,2.63l-28.97,66.01c.46,1.04.92,2.07,1.37,3.09l29.91-68.17c2.04.81,4.15,1.6,6.29,2.35l-32.51,74.09c.47,1.05.93,2.07,1.38,3.07l33.5-76.34c2.11.7,4.27,1.37,6.46,1.97l-36.22,82.55c.49,1.06.97,2.07,1.41,3.01l37.26-84.91c2.2.56,4.43,1.05,6.68,1.47l-40.1,91.39c.42.91.89,1.92,1.4,3.02l41.24-93.97c2.3.36,4.63.64,6.97.81l-44.33,101.01c.48.91.98,1.84,1.51,2.78l45.49-103.65c2.44.1,4.89.09,7.35-.06l-48.59,110.73c.48.72.97,1.43,1.47,2.15l.26.12,49.69-113.22c13.3-1.36,26.82-6.79,39.42-19.14ZM21.91,47.71c-3.99,0-7.23-3.24-7.23-7.23s3.24-7.23,7.23-7.23,7.23,3.24,7.23,7.23-3.24,7.23-7.23,7.23Z"/></clipPath><clipPath id="clippath-1"><path class="cls-1" d="M179.45,51.51c11.32,86.4-26.06,132.89-43.6,156.41-13.95,18.15-14.93,26.19-9.98,33.98-18.25,7.86-34.41,3.63-40.59,2.28-3.17-4.12-4.18-7.99-5.62-11.47,9.73-7.21,26.46-21.87,43.59-50,38.06-54.9,32.17-118.07,32.07-123.56,0,0,10.9-.74,24.14-7.65Z"/></clipPath><clipPath id="clippath-2"><path class="cls-1" d="M194.5,40.13c-7.17-20.96-16.9-32.65-16.9-32.65-14.4,13.59-47.53,26.43-105.13,6.02C14.87-6.92,0,25.7,0,37.5c0,5.89,1.72,19.39,18.24,21.13,0,0,0,0,0,0,.02,0,.03,0,.05,0,.11.01.22.02.34.03,1.53.17,3.69.87,5.28,7.03,17.36,67.44,29.92,133.72,46.65,172.11.43.98,1.21.38,1.21.38,4.26-3.06,27.49-16.05,51.48-55.46-13.27-6.3-26.99-38.37-26.99-38.37-8.7-17.95-46.75-103.47-46.75-103.47-5.97-12.87-10.42-14.34-13.14-15.7,13.05,0,15.83,0,54.83,18.21,24.65,11.21,67.63,31.69,103.3-3.27ZM14.67,40.47c0-3.99,3.24-7.23,7.23-7.23s7.23,3.24,7.23,7.23-3.24,7.23-7.23,7.23-7.23-3.24-7.23-7.23Z"/></clipPath><filter id="luminosity-noclip" x="47.57" y="-9572.39" width="74.6" height="32766" color-interpolation-filters="sRGB" filterUnits="userSpaceOnUse"><feFlood flood-color="#fff" result="bg"/><feBlend in="SourceGraphic" in2="bg"/></filter><mask id="mask" x="47.57" y="-9572.39" width="74.6" height="32766" maskUnits="userSpaceOnUse"/></defs><g class="cls-25"><g id="Layer_2"><g id="Graphics"><path class="cls-29" d="M177.6,7.48c-14.4,13.59-47.53,26.43-105.13,6.02C14.87-6.92,0,25.7,0,37.5c0,6.3,1.97,21.31,21.91,21.31,12.61,0,19.84-11.61,19.84-18.34s-5.38-15.3-5.38-15.3c13.05,0,15.83,0,54.83,18.21,24.65,11.21,67.63,31.69,103.3-3.27-7.17-20.96-16.9-32.65-16.9-32.65ZM21.91,47.71c-3.99,0-7.23-3.24-7.23-7.23s3.24-7.23,7.23-7.23,7.23,3.24,7.23,7.23-3.24,7.23-7.23,7.23Z"/><path class="cls-29" d="M179.45,51.51c11.32,86.4-26.06,132.89-43.6,156.41-13.95,18.15-14.93,26.19-9.98,33.98-18.25,7.86-34.41,3.63-40.59,2.28-3.17-4.12-4.18-7.99-5.62-11.47,9.73-7.21,26.46-21.87,43.59-50,38.06-54.9,32.17-118.07,32.07-123.56,0,0,10.9-.74,24.14-7.65Z"/><path class="cls-29" d="M152.77,58.31l-49.11,111.91c.48.72.97,1.43,1.47,2.15l.26.12,50.22-114.44c-.94.11-1.89.2-2.84.27Z"/><path class="cls-29" d="M97.9,160.43c.48.91.98,1.84,1.51,2.78l45.98-104.78c-.89-.03-1.78-.08-2.67-.14l-44.82,102.14Z"/><path class="cls-29" d="M92.62,149.54c.42.91.89,1.92,1.4,3.02l41.71-95.06c-.85-.13-1.7-.27-2.54-.43l-40.58,92.46Z"/><path class="cls-29" d="M87.37,138.59c.49,1.06.97,2.07,1.41,3.01l37.73-85.97c-.82-.21-1.64-.42-2.45-.64l-36.69,83.61Z"/><path class="cls-29" d="M82.25,127.35c.47,1.05.93,2.07,1.38,3.07l33.96-77.4c-.8-.26-1.59-.53-2.37-.81l-32.97,75.14Z"/><path class="cls-29" d="M77.18,115.98c.46,1.04.92,2.07,1.37,3.09l30.38-69.22c-.78-.31-1.55-.62-2.32-.93l-29.43,67.06Z"/><path class="cls-29" d="M72.14,104.55c.46,1.04.91,2.08,1.37,3.11l26.93-61.36c-.77-.34-1.53-.68-2.28-1.01l-26.01,59.27Z"/><path class="cls-29" d="M89.77,41.46l-22.65,51.61c.45,1.04.91,2.08,1.36,3.12l23.56-53.68-.36-.16c-.65-.3-1.28-.6-1.91-.89Z"/><path class="cls-29" d="M62.11,81.57c.45,1.03.9,2.08,1.36,3.12l20.21-46.06c-.77-.36-1.53-.71-2.27-1.04l-19.3,43.98Z"/><path class="cls-29" d="M57.11,70.04c.44,1.03.9,2.07,1.36,3.13l16.83-38.36c-.78-.35-1.54-.69-2.28-1.02l-15.91,36.25Z"/><path class="cls-29" d="M52.12,58.51c.44,1.01.89,2.05,1.35,3.13l13.39-30.52c-.8-.34-1.56-.66-2.3-.97l-12.44,28.36Z"/><path class="cls-29" d="M36.37,25.18c2.72,1.36,7.16,2.84,13.14,15.7,0,0,38.05,85.52,46.75,103.47,0,0,13.72,32.06,26.99,38.37-24,39.41-47.22,52.4-51.48,55.46,0,0-.79.6-1.21-.38-16.73-38.38-29.28-104.67-46.65-172.11-1.72-6.7-4.13-6.94-5.67-7.06,0,0,31.8-1.45,18.13-33.45Z"/><g class="cls-24"><g class="cls-30"><path class="cls-22" d="M154.65,42.83c2,.63,3.9,1.47,5.79,2.31,1.89.84,3.76,1.67,5.69,2.32,1.92.65,3.92,1.1,5.91,1.09,2.01-.01,4-.46,5.95-1.05,1.95-.6,3.86-1.35,5.77-2.11,1.78-.71,3.57-1.43,5.4-2.05,1.73-1.75,2.72-2.87,2.72-2.87-.04-.12-.07-.2-.07-.2,0,0-1.28.36-1.91.56-1.94.63-3.85,1.39-5.78,2.14-1.92.75-3.86,1.5-5.86,2.1-2,.6-4.09,1.05-6.21,1.05-2.15,0-4.23-.5-6.2-1.18-1.98-.68-3.87-1.54-5.75-2.39-.79-.35-1.58-.71-2.37-1.04.34-.15.68-.31,1.01-.46.57.25,1.13.49,1.7.74,1.89.84,3.76,1.68,5.69,2.32,1.92.65,3.92,1.1,5.91,1.09,2.01,0,4-.46,5.95-1.05,1.95-.6,3.86-1.35,5.77-2.11,1.91-.76,3.84-1.54,5.82-2.2.62-.2,1.25-.39,1.89-.57-.25-.69-.49-1.37-.74-2.04-.28.08-.56.16-.83.25-1.94.63-3.85,1.39-5.78,2.14-1.92.75-3.86,1.5-5.86,2.1-2,.59-4.09,1.05-6.21,1.05-2.15,0-4.23-.5-6.2-1.18-1.58-.54-3.1-1.2-4.6-1.87.31-.17.6-.35.9-.53,1.31.57,2.63,1.12,3.98,1.57,1.92.65,3.92,1.1,5.91,1.09,2.01-.01,4-.46,5.95-1.05,1.95-.6,3.86-1.35,5.77-2.11,1.91-.76,3.84-1.54,5.82-2.2.26-.09.53-.16.79-.24-.26-.69-.52-1.36-.77-2.02-1.84.61-3.65,1.33-5.47,2.04-1.92.75-3.86,1.5-5.86,2.1-2,.59-4.09,1.05-6.21,1.05-2.15,0-4.23-.5-6.2-1.18-.49-.17-.98-.35-1.46-.54.29-.2.57-.41.84-.62.3.11.6.22.9.32,1.92.65,3.92,1.1,5.91,1.09,2.01,0,4-.46,5.95-1.05,1.95-.6,3.86-1.35,5.77-2.11,1.8-.72,3.61-1.44,5.46-2.07-.27-.67-.53-1.33-.8-1.98-1.44.51-2.87,1.07-4.3,1.63-1.92.75-3.86,1.5-5.86,2.1-2,.59-4.08,1.05-6.21,1.05-1.62,0-3.19-.29-4.72-.71.27-.24.53-.47.78-.71,1.29.32,2.61.52,3.92.51,2.01-.01,4-.46,5.95-1.05,1.95-.6,3.86-1.35,5.77-2.11,1.41-.56,2.83-1.12,4.27-1.64-.28-.67-.56-1.32-.84-1.96-1.03.38-2.05.78-3.07,1.18-1.92.75-3.86,1.5-5.86,2.1-2,.59-4.08,1.05-6.21,1.05-.65,0-1.29-.05-1.92-.13.25-.28.49-.56.73-.83.39.03.78.05,1.18.05,2.01-.01,4-.46,5.95-1.05,1.95-.6,3.86-1.35,5.77-2.11,1-.4,2.01-.8,3.03-1.18-.29-.66-.59-1.3-.88-1.93-.6.23-1.19.46-1.79.69-1.92.75-3.86,1.5-5.86,2.1-1.78.53-3.64.95-5.53,1.03.23-.32.45-.65.67-.97,1.55-.15,3.08-.52,4.58-.98,1.95-.6,3.86-1.35,5.77-2.11.57-.23,1.15-.45,1.72-.68-.31-.66-.62-1.29-.92-1.91-.15.06-.29.12-.44.17-1.92.75-3.86,1.5-5.86,2.1-1.06.32-2.15.59-3.25.78.2-.36.39-.71.57-1.06.81-.17,1.61-.39,2.41-.63,1.95-.6,3.86-1.35,5.77-2.11.12-.05.24-.1.36-.14-.33-.66-.66-1.29-.98-1.9-1.6.62-3.22,1.22-4.88,1.72-.47.14-.95.27-1.43.4.16-.37.31-.74.45-1.1.24-.07.47-.14.71-.21,1.58-.49,3.14-1.08,4.7-1.69-.36-.67-.71-1.3-1.04-1.9-1.11.41-2.23.81-3.38,1.16-.03,0-.05.02-.08.02.12-.38.23-.75.32-1.1.89-.29,1.77-.61,2.65-.94-.4-.69-.78-1.32-1.14-1.9-.31.11-.61.21-.92.31.03-.15.06-.29.08-.42l.03-.17-.02-.17c0-.09,0-.18-.02-.27.11-.04.22-.08.33-.12-.64-1.01-1.21-1.84-1.66-2.46-8.52,54.25-87.51,24.49-111.63,14.81-46.83-17.14-54.88,7.32-54.88,7.32,8.46-13.9,22.49-9.38,25.04-8.1,27.64,0,65.24,37.86,117.56,37.86,9.74,0,19.9-6.44,27.26-12.43-.26.15-.53.3-.79.46-.7.25-1.41.49-2.12.7-2,.59-4.08,1.05-6.21,1.05-2.15,0-4.23-.5-6.2-1.18-1.98-.68-3.87-1.54-5.75-2.39-1.88-.85-3.75-1.69-5.69-2.31-1.94-.63-3.93-1-5.95-.84-2.01.14-4,.65-5.95,1.28-1.95.63-3.86,1.39-5.78,2.14-1.92.75-3.86,1.5-5.85,2.1-1.99.59-4.06,1.05-6.17,1.05-2.12,0-4.19-.5-6.15-1.17-1.97-.68-3.86-1.54-5.74-2.38-1.88-.85-3.76-1.69-5.71-2.32-1.94-.63-3.97-1.01-6-.84-1.16.08-2.1.21-3.24.48-.21-.09-.42-.19-.63-.29,1.32-.36,2.46-.55,3.84-.65,2.09-.18,4.21.2,6.18.83,1.99.63,3.89,1.47,5.77,2.3,1.89.84,3.76,1.68,5.7,2.33,1.93.65,3.95,1.11,5.96,1.1,2.03-.01,4.03-.46,5.99-1.06,1.96-.6,3.87-1.36,5.79-2.12,1.92-.76,3.84-1.54,5.81-2.19,1.97-.65,4.01-1.19,6.12-1.35,2.11-.18,4.26.2,6.24.84,2,.63,3.9,1.47,5.79,2.31,1.89.83,3.76,1.67,5.69,2.32,1.92.65,3.92,1.1,5.91,1.09,2.01-.01,4-.46,5.95-1.05,1.72-.53,3.41-1.18,5.11-1.85,1.64-1.41,3.1-2.76,4.34-3.95-1.11.41-2.21.84-3.31,1.27-1.92.75-3.86,1.5-5.86,2.1-2,.59-4.08,1.05-6.21,1.05-2.15,0-4.23-.5-6.2-1.18-1.98-.68-3.87-1.54-5.75-2.39-1.88-.85-3.75-1.69-5.69-2.31-.42-.13-.84-.25-1.26-.36.46-.14.91-.29,1.35-.44.05.01.1.03.15.04ZM153.99,59.39l-1.67.1c-1.27-.24-2.56-.34-3.86-.21-.75.07-1.5.18-2.25.34-.85-.02-1.69-.05-2.54-.1,1.53-.48,3.1-.85,4.72-1,2.11-.22,4.26.13,6.26.73.05.01.1.03.15.05-.27.03-.54.06-.81.09ZM158.83,58.7c-1.46-.65-2.92-1.26-4.42-1.74-1.94-.63-3.93-1-5.95-.84-2.01.14-4,.65-5.95,1.28-1.52.49-3.02,1.06-4.52,1.65l-.69-.08c-.24-.03-.47-.07-.71-.11,1.88-.75,3.76-1.51,5.7-2.15,1.97-.65,4.01-1.19,6.12-1.35,2.11-.18,4.26.2,6.24.84,1.86.59,3.63,1.36,5.39,2.13-.42.13-.83.26-1.21.37ZM163.22,57.3c-1.05-.44-2.08-.91-3.12-1.37-1.88-.85-3.75-1.69-5.69-2.31-1.94-.63-3.93-1-5.95-.84-2.01.14-4,.65-5.95,1.28-1.95.63-3.86,1.39-5.78,2.14-1.65.64-3.3,1.28-5,1.83-.44-.09-.88-.17-1.32-.26.09-.03.19-.05.28-.08,1.96-.6,3.87-1.36,5.79-2.12,1.92-.76,3.84-1.54,5.81-2.19,1.97-.65,4.01-1.19,6.12-1.35,2.11-.18,4.26.2,6.24.84,2,.63,3.9,1.47,5.79,2.31,1.34.59,2.68,1.19,4.04,1.72-.43.14-.85.28-1.26.42ZM107.27,49.44c1.99.63,3.89,1.47,5.77,2.3,1.89.83,3.76,1.68,5.7,2.33,1.93.65,3.95,1.11,5.96,1.1,2.03-.01,4.03-.46,5.99-1.06,1.96-.6,3.87-1.36,5.79-2.12,1.92-.76,3.84-1.54,5.81-2.19,1.97-.65,4.01-1.19,6.12-1.35,2.11-.18,4.26.2,6.24.84,2,.63,3.9,1.47,5.79,2.31,1.89.84,3.76,1.67,5.69,2.32,1.2.4,2.44.73,3.68.92-.56.19-1.12.38-1.68.58-.77-.19-1.53-.42-2.27-.67-1.98-.68-3.87-1.54-5.75-2.39-1.88-.85-3.75-1.69-5.69-2.31-1.94-.63-3.93-1-5.95-.84-2.01.14-4,.65-5.95,1.28-1.95.63-3.86,1.39-5.78,2.14-1.92.75-3.86,1.5-5.85,2.1-1.99.59-4.06,1.05-6.17,1.04-.72,0-1.43-.06-2.13-.16-1.37-.2-2.72-.56-4.02-1.01-1.07-.37-2.12-.79-3.15-1.24-.87-.37-1.73-.76-2.59-1.15-1.88-.85-3.76-1.69-5.71-2.32-.84-.27-1.9-.53-2.77-.69l-1.61-.67c1.47.09,3.14.44,4.53.88ZM118.74,44.27s0,0,0,0c1.93.65,3.95,1.11,5.96,1.1.94,0,1.87-.11,2.8-.27.77.05,1.54.09,2.32.13-1.66.44-3.37.75-5.11.75-2.12,0-4.19-.5-6.15-1.17-.77-.26-1.52-.56-2.27-.87.81.12,1.63.22,2.45.33ZM77.38,35.84c-1.03,0-2.48-.19-3.45-.37-.49-.22-.97-.43-1.44-.64v-.03c1.28.33,3.34.68,4.87.68h.03c1.35,0,2.79-.21,4.42-.62h0s0,0,0,0c.15.05.3.11.45.16l.19.07-.09.02c-1.85.49-3.48.72-4.98.72h-.01ZM81.16,38.74s-.03-.01-.04-.02c0,0,0,0-.01,0-.16-.08-.33-.15-.49-.23t0,0s-.03-.01-.04-.02h.04c.87-.18,1.76-.4,2.79-.72.98-.3,2.04-.67,3.32-1.16h.01s0,0,0,0c.09.03.18.06.26.09.09.03.19.06.28.1l.07.03-.07.03c-1.51.57-2.67.97-3.77,1.3-.86.26-1.61.45-2.35.6ZM85.56,40.77s-.08.03-.12.04c-.15-.07-.3-.14-.45-.21.04-.01.08-.03.12-.04-.01,0-.02-.01-.04-.02,1.38-.48,2.74-1.02,4.13-1.57.69-.27,1.42-.56,2.15-.85h0s.21.06.21.06c.14.04.27.09.41.13l.08.02-.08.03c-.77.29-1.55.6-2.3.89l-.31.12c-1.19.47-2.47.96-3.75,1.41-.01,0-.03-.01-.04-.02ZM89.57,42.63s-.02-.01-.04-.02c0,0,0,0,0,0-.16-.07-.32-.15-.47-.22t0,0s-.02-.01-.04-.02h.02c.05-.03.06-.03.08-.04.01,0,.02,0,.07-.03l.5-.2c1.72-.69,3.51-1.4,5.31-1.99.53-.18,1.01-.33,1.48-.46h0s.06.02.06.02c.25.07.5.14.75.21l.1.03-.1.03c-.68.17-1.38.38-2.14.63-1.82.59-3.49,1.24-5.25,1.93l-.32.13ZM136.73,46.18c-1.92.75-3.86,1.5-5.85,2.1-1.99.59-4.06,1.05-6.17,1.05-2.12,0-4.19-.5-6.15-1.17-1.97-.68-3.86-1.54-5.74-2.38-1.88-.85-3.76-1.69-5.71-2.32-1.94-.63-3.97-1.01-6-.85-2.03.14-4.03.66-5.98,1.29-.61.2-1.22.41-1.83.63l-.52-.24c.73-.28,1.47-.54,2.22-.79,1.97-.65,3.99-1.19,6.08-1.34,2.09-.18,4.21.2,6.18.83,1.99.63,3.89,1.47,5.77,2.3,1.89.84,3.76,1.68,5.7,2.33,1.93.65,3.95,1.11,5.96,1.1,2.03-.01,4.03-.46,5.99-1.06,1.96-.6,3.87-1.36,5.79-2.12.1-.04.21-.08.31-.12.27,0,.53,0,.8,0,.38,0,.75,0,1.12-.02-.66.26-1.32.51-1.98.77Z"/></g></g><g class="cls-24"><g class="cls-26"><path class="cls-22" d="M179.92,52.43c-.56.29-.83.38-1.54.71.31,11-1.51,11.12-10.49,13.94-11.31,3.83-10.58.61-13.47,27.96v-38.31l25.5-6.69v2.39Z"/><path class="cls-22" d="M83.47,237.76c1.96-.6,3.88-1.36,5.8-2.12,1.92-.76,3.83-1.54,5.8-2.19,1.97-.65,3.99-1.19,6.08-1.34.66-.06,1.33-.05,1.99,0,.47-.81,1.01-1.68,1.66-2.64-1.19-.23-2.4-.33-3.62-.23-2.03.14-4.03.66-5.98,1.29-1.95.63-3.87,1.4-5.79,2.15-1.92.75-3.85,1.5-5.84,2.1-.2.06-.4.12-.6.17l.49-.42c.05-.05.1-.09.15-.13,1.91-.6,3.78-1.33,5.65-2.07,1.92-.76,3.83-1.54,5.8-2.19,1.97-.65,3.99-1.19,6.08-1.34,1.32-.12,2.65,0,3.95.26.51-.74,1.08-1.53,1.74-2.4-1.84-.56-3.74-.89-5.66-.74-2.03.14-4.03.66-5.98,1.29-1.89.61-3.74,1.34-5.6,2.07.3-.26.6-.51.89-.76,1.51-.6,3.03-1.19,4.58-1.7,1.97-.65,3.99-1.19,6.08-1.34,2.03-.18,4.09.18,6.01.78.53-.69,1.11-1.42,1.74-2.2-.57-.22-1.14-.43-1.72-.62-1.94-.63-3.97-1.01-6-.85-1.67.12-3.31.48-4.93.96.26-.23.51-.44.77-.66,1.35-.37,2.72-.65,4.13-.75,2.09-.18,4.21.2,6.18.83.65.2,1.28.44,1.91.68.54-.66,1.11-1.34,1.74-2.07-1.25-.54-2.51-1.06-3.79-1.48-1.93-.62-3.94-1-5.96-.85.19-.17.37-.32.56-.49,1.89-.07,3.78.3,5.55.86,1.37.43,2.69.97,4,1.53.55-.64,1.12-1.3,1.74-2-.06-.03-.12-.05-.18-.08-1.88-.84-3.76-1.69-5.71-2.32-.79-.25-1.59-.46-2.4-.62.15-.13.31-.27.46-.4.71.15,1.41.33,2.09.55,1.99.63,3.89,1.47,5.77,2.3.11.05.23.1.34.15.56-.63,1.15-1.29,1.77-1.97-.78-.34-1.55-.68-2.32-1.03-1.72-.77-3.43-1.54-5.2-2.14.15-.13.29-.25.43-.38,1.7.59,3.35,1.31,4.99,2.03.83.37,1.66.73,2.5,1.09.58-.64,1.19-1.31,1.83-2-1.54-.59-3.05-1.27-4.54-1.94-.85-.38-1.71-.77-2.57-1.13.15-.13.29-.25.43-.38.79.33,1.58.68,2.36,1.02,1.57.7,3.14,1.39,4.74,1.98.62-.67,1.27-1.36,1.94-2.08-.39-.11-.78-.23-1.16-.36-1.97-.68-3.86-1.54-5.74-2.38-.02,0-.04-.02-.06-.03.15-.13.3-.27.43-.39,1.83.81,3.67,1.63,5.55,2.26.47.16.95.3,1.42.43.69-.73,1.4-1.49,2.15-2.27-1.28-.21-2.54-.55-3.76-.97-1.13-.39-2.24-.84-3.33-1.31.16-.15.3-.28.44-.41,1.01.43,2.03.83,3.07,1.18,1.33.45,2.7.79,4.08.97.8-.84,1.64-1.72,2.51-2.62-.21,0-.42.02-.62.02-2.12,0-4.19-.5-6.15-1.17-.28-.1-.56-.2-.83-.31.15-.14.31-.29.47-.43.18.06.36.14.55.2,1.93.65,3.95,1.11,5.96,1.1.42,0,.85-.03,1.27-.07,1-1.03,2.03-2.1,3.11-3.23-1.43.34-2.89.56-4.37.56-1.48,0-2.92-.25-4.33-.62.16-.15.33-.32.5-.48,1.26.3,2.54.49,3.82.48,1.76,0,3.5-.35,5.21-.83,1.14-1.21,2.33-2.48,3.54-3.81-.85.31-1.7.6-2.57.86-1.99.59-4.06,1.05-6.17,1.05-.49,0-.97-.03-1.45-.08.19-.18.37-.37.56-.56.29.02.59.03.88.03,2.03,0,4.03-.46,5.99-1.05,1.26-.39,2.5-.84,3.73-1.31,1.14-1.27,2.31-2.59,3.49-3.97-.39.15-.79.31-1.19.46-1.92.75-3.86,1.5-5.85,2.1-1.4.42-2.84.76-4.3.93.23-.24.46-.48.69-.72,1.15-.19,2.29-.48,3.42-.83,1.96-.6,3.87-1.36,5.79-2.12.79-.32,1.59-.63,2.39-.94,1.01-1.19,2.03-2.43,3.06-3.7-1.75.59-3.47,1.27-5.2,1.94-1.92.75-3.86,1.5-5.85,2.1-.14.04-.29.08-.43.13.28-.31.57-.62.85-.94,1.75-.57,3.46-1.24,5.18-1.92,1.92-.76,3.84-1.54,5.81-2.19.16-.05.32-.1.48-.15.85-1.07,1.7-2.16,2.55-3.28-.94.22-1.88.49-2.8.79-1.95.63-3.86,1.39-5.78,2.14-.7.27-1.4.54-2.1.81.3-.35.6-.71.91-1.07.31-.12.63-.25.94-.37,1.92-.76,3.84-1.54,5.81-2.19,1.21-.4,2.45-.76,3.72-1.01.71-.94,1.41-1.91,2.12-2.89-1.9.17-3.77.65-5.61,1.25-1.29.42-2.56.89-3.82,1.38.29-.36.57-.72.86-1.08.9-.34,1.82-.68,2.74-.99,1.97-.65,4.01-1.19,6.12-1.35.1,0,.2-.01.29-.02.59-.84,1.19-1.69,1.78-2.55-.67-.05-1.34-.07-2.02-.01-2.01.14-4,.65-5.95,1.28-.07.02-.14.05-.2.07.25-.33.5-.67.75-1,1.73-.54,3.51-.97,5.35-1.1.85-.08,1.72-.05,2.57.04.51-.75,1.02-1.52,1.52-2.3-1.33-.29-2.68-.43-4.04-.32-1.02.07-2.04.24-3.04.47.22-.3.43-.6.64-.9.77-.15,1.55-.27,2.35-.33,1.52-.13,3.07.04,4.55.38.46-.71.91-1.42,1.36-2.14-1.91-.61-3.87-.97-5.86-.81-.13.01-.27.02-.4.04.18-.27.37-.54.55-.81,2.05-.14,4.12.24,6.04.85.04.01.07.02.11.04.42-.67.83-1.36,1.24-2.05-.53-.2-1.06-.4-1.59-.57-1.34-.43-2.7-.74-4.08-.84.16-.25.32-.49.48-.74,1.31.13,2.61.42,3.84.82.6.19,1.19.4,1.77.62.39-.66.78-1.32,1.16-2-1.05-.44-2.1-.86-3.18-1.21-.7-.23-1.4-.42-2.11-.56.15-.24.3-.47.45-.71.65.14,1.29.31,1.91.51,1.14.36,2.25.79,3.34,1.25.37-.65.73-1.31,1.09-1.97-1.54-.69-3.09-1.35-4.68-1.86-.11-.04-.22-.07-.33-.1.14-.23.28-.47.43-.71.05.02.1.03.15.04,1.66.53,3.26,1.2,4.83,1.89.35-.65.7-1.3,1.04-1.96-.14-.06-.29-.13-.43-.19-1.45-.65-2.9-1.3-4.37-1.85.14-.24.28-.47.42-.71,1.46.54,2.88,1.17,4.29,1.79.16.07.32.14.48.21.34-.65.67-1.31,1-1.97-.61-.27-1.22-.54-1.82-.81-.93-.42-1.86-.84-2.8-1.23.14-.24.27-.48.41-.72.92.38,1.83.78,2.74,1.18.62.27,1.24.55,1.86.81.33-.66.65-1.33.97-2-1.07-.45-2.12-.92-3.17-1.39-.44-.2-.87-.39-1.31-.58.13-.24.26-.49.39-.73.42.18.84.37,1.25.55,1.06.47,2.12.93,3.19,1.37.32-.67.63-1.35.94-2.04-1.48-.57-2.91-1.21-4.34-1.85.13-.25.26-.5.39-.74,1.43.63,2.86,1.26,4.31,1.8.31-.69.61-1.38.91-2.08-1.44-.49-2.83-1.09-4.21-1.7.13-.25.26-.5.38-.76,1.36.59,2.73,1.16,4.12,1.63.01,0,.03,0,.04.01.3-.71.6-1.42.89-2.15-.41-.12-.81-.24-1.21-.38-.97-.33-1.93-.71-2.87-1.11.13-.26.25-.51.38-.77.92.38,1.84.74,2.77,1.05.42.14.84.27,1.26.39.29-.73.58-1.47.86-2.21-.81-.19-1.62-.42-2.4-.69-.52-.18-1.03-.37-1.54-.57.12-.26.24-.52.36-.79.48.18.97.36,1.45.52.8.27,1.61.5,2.44.68.28-.75.56-1.5.83-2.26-1.21-.21-2.4-.53-3.54-.93-.08-.03-.16-.06-.23-.09.12-.27.23-.54.35-.8.05.02.11.04.16.06,1.17.39,2.37.71,3.57.89.27-.77.54-1.54.8-2.33-1.23-.13-2.44-.39-3.62-.75.12-.27.23-.55.34-.82,1.17.34,2.36.58,3.56.69.26-.79.51-1.58.76-2.38-1.16-.04-2.3-.22-3.42-.49.11-.28.23-.56.34-.84,1.11.25,2.24.41,3.36.42.24-.8.48-1.61.72-2.43-.16,0-.33.01-.49.01-.92,0-1.82-.1-2.7-.25.11-.28.22-.57.33-.85.79.13,1.57.2,2.36.19.26,0,.51-.01.77-.03.23-.81.45-1.64.67-2.47-.48.04-.95.07-1.43.07-.51,0-1.01-.03-1.51-.09.11-.29.21-.59.32-.88.39.03.79.05,1.18.05.57,0,1.13-.04,1.69-.11.21-.82.42-1.65.62-2.49-.76.11-1.53.17-2.3.17-.12,0-.24,0-.36-.01.1-.3.2-.6.3-.9.01,0,.03,0,.04,0,.85,0,1.7-.09,2.54-.23.19-.82.38-1.66.57-2.49-.77.14-1.56.24-2.35.28.1-.31.2-.63.3-.94.76-.06,1.51-.18,2.26-.33.18-.82.34-1.65.51-2.49-.66.14-1.33.26-2.01.33.1-.32.2-.64.29-.97.64-.09,1.28-.22,1.91-.37.16-.82.31-1.65.46-2.48-.55.13-1.1.24-1.65.34.09-.33.18-.66.27-.99.52-.1,1.04-.22,1.55-.36.14-.82.27-1.64.4-2.47-.43.11-.85.21-1.29.3.09-.34.17-.68.26-1.02.4-.09.79-.2,1.18-.31.12-.81.24-1.63.35-2.46-.31.09-.61.18-.92.25.08-.35.16-.69.24-1.04.27-.07.54-.15.81-.23.1-.81.2-1.62.3-2.43-.18.05-.37.11-.55.16.08-.35.16-.7.23-1.06.09-.03.17-.05.26-.08.06-.02.12-.04.18-.06,1.03-9.4,1.41-19.47.95-30.27-3.37,43.23-14.58,87.34-64.84,134.09,7.35-9.39,5.33-14.48,10.7-24.73,0,0-30.97,44.41-46.58,52.12l2.02,4.45c.4-.23,1.23-.91,1.46-.48.12.22.58,1.1,1.25,2.22.09-.03.19-.05.28-.08Z"/><path class="cls-22" d="M101.19,232.56c-2.03.14-4.03.66-5.98,1.29-1.95.64-3.87,1.4-5.79,2.15-1.92.75-3.85,1.5-5.84,2.1-.07.02-.13.04-.2.06.46.76,1.01,1.61,1.61,2.45,1.44-.5,2.87-1.05,4.29-1.62,1.92-.76,3.83-1.54,5.8-2.19,1.97-.65,3.99-1.19,6.08-1.34.09,0,.18-.01.26-.01.44-.92.9-1.86,1.47-2.88-.56-.03-1.13-.04-1.7,0Z"/><path class="cls-22" d="M95.07,240.13c1.52-.5,3.07-.93,4.66-1.18.55-1.09,1-2.07,1.46-3.05h-.01c-2.03.14-4.03.66-5.98,1.28-1.95.64-3.87,1.4-5.79,2.15-1.39.54-2.79,1.08-4.21,1.56.07.1.14.2.22.29,0,0,1.82.69,4.74.77,1.62-.64,3.25-1.28,4.92-1.84Z"/><path class="cls-22" d="M95.2,240.53c-1.34.43-2.67.93-3.99,1.44,1.99-.04,4.38-.38,6.99-1.33,0,0,.76-.22,1.27-1.19-1.45.24-2.88.63-4.28,1.08Z"/></g></g><path class="cls-23" d="M82.51,226.83c-1.69,1.49-4.19,3.45-6.32,4.77-2.13,1.32-4.24.04-6.39-3.92-2.75-5.09-8.95-23.95-11.63-33.58,1.98,4.06,8.92,22.26,13.56,31.97,1.46,2.54,2.62,4.46,6.28,2.81,3.93-1.77,4.5-2.04,4.5-2.04Z"/><path class="cls-23" d="M29.3,81.53c.41-8.75-4.06-14.25,1.86-17.43,3.81-2.04,4.24-3.8,4.24-3.8-1.62-6.14-2.97-8.26-3.25-8.66s-.48-.08-.48-.08c-3.25,5.31-8.2,6.22-11.38,6.84,6.17,1.98,6.64,19.25,9.01,23.12Z"/><path class="cls-23" d="M16.55,35.62c1.32-1.46,3.23-2.38,5.36-2.38.27,0,.55.02.81.05.43-.04.87-.07,1.32-.07,2.44,0,4.72.68,6.67,1.86-1.86-2.85-5.05-4.74-8.68-4.74-5.74,0-10.39,4.71-10.39,10.51,0,.49.04.98.1,1.45.84-2.72,2.56-5.05,4.82-6.67Z"/><path class="cls-23" d="M31.94,36.61h0c.46,1.2.72,2.5.72,3.86,0,4.52-2.79,8.39-6.74,9.98,1.87-.06,3.08-.42,6.03-2,0,0,1.18-.64,1.81.88,18.03,43.94,48.49,138.59,66.64,164.57l4.56-5.25c-23.09-29.18-40.8-93.79-73.01-172.04Z"/><g class="cls-24"><g class="cls-27"><path class="cls-22" d="M108.27,170.68l3.96-2.39-2.3-3.81-1.4.84-3.14,7.16-.26-.12c-.5-.71-1-1.43-1.47-2.15l1.7-3.88c-1.24-1.94-1.82-2.86-2.96-4.88l5.28-3.19-2.92-4.89-1.42.86-3.93,8.97c-.53-.94-1.03-1.87-1.51-2.78l1.73-3.94h0c-.83-1.54-1.62-3.06-2.37-4.53-.32-.62-.05-.07-.51-1.01l5.8-3.5-2.95-5.15-1.44.87-4.13,9.4c-.51-1.1-.98-2.11-1.4-3.02l1.65-3.76-.1-.21c-.96-2.03-1.47-3.12-2.68-5.76l5.82-3.52-2.89-5.09-1.46.89-4.17,9.51c-.44-.94-.91-1.94-1.41-3.01l1.73-3.94-.08-.19c-1.02-2.22-1.46-3.38-2.59-5.86l5.75-3.48-2.94-5.01-1.49.9-4.13,9.41c-.45-1-.91-2.02-1.38-3.07l1.73-3.94-.04-.09c-1.04-2.29-1.57-3.63-2.67-6.06l5.65-3.41-2.84-4.83-1.51.91-4.01,9.15c-.45-1.02-.91-2.05-1.37-3.09l1.69-3.85c-1.05-2.32-1.7-3.81-2.77-6.19l5.52-3.34-2.72-4.68-1.53.93-3.86,8.81c-.45-1.03-.91-2.07-1.37-3.11l1.63-3.72c-1.04-2.31-1.71-3.95-2.75-6.27l5.38-3.25-2.67-4.48-1.55.94-3.7,8.42c-.45-1.04-.91-2.08-1.36-3.12l1.56-3.56c-1.03-2.29-1.82-4.16-2.83-6.4l5.23-3.16-2.53-4.21-1.57.95-3.51,8.01c-.46-1.05-.91-2.09-1.36-3.12l1.49-3.39c-1.02-2.27-2.01-4.49-2.98-6.66l5.07-3.06-2.3-3.81-1.6.96-3.32,7.57c-.46-1.06-.91-2.1-1.36-3.13l1.41-3.21c-1.01-2.26-1.98-4.44-2.91-6.51l4.91-2.96-2.3-3.81-1.62.98-3.12,7.11c-.47-1.08-.92-2.12-1.35-3.13l1.33-3.03c-3.73-8.35-6.43-14.42-7.34-16.44-7.33-16.4-18.65-14.5-22.85-13.32,5.77-.54,13.56.78,18.1,11.87,5.08,12.42,45.62,112.58,54.06,127.58,6.32,11.24,13.83,23.08,27.82,17.55-4.86-.09-10.11-5.23-14.97-12.03Z"/></g></g><path class="cls-23" d="M57.3,160.44c-.19-.54.09-1.14.64-1.34.55-.19,1.14.09,1.34.64.19.54-.09,1.14-.63,1.34-.54.19-1.15-.09-1.34-.64ZM79.56,205.62c1.96-.7,3.14.61,3.41,1.35.43,1.2-.3,2.4-1.77,2.93-1.5.54-2.93-.17-3.27-1.13-.38-1.05-.17-2.51,1.63-3.15ZM78.41,203.08c-3.12,1.11-3.47,4.22-2.96,5.63.44,1.25,1.04,1.56,1.43,1.76.08.04.14.08.19.12.02,0,.03,0,.03.01-.4-.11-1.15-.36-2.42-1.03-1.62-.84-2.89-2.19-3.17-2.99-.01-.04-.03-.08-.04-.12-.02-.07-.03-.13-.05-.18-.04-.11-.1-.23-.23-.27-.13-.04-.23.05-.3.11-.09.07-.58.48-.94.79-.16.14-.29.25-.32.28-.1.08-.13.2-.08.33.03.09.11.19.22.34,1.99,2.63,4.16,4.3,6.43,4.97,1.76.52,3.6.45,5.47-.22,3.05-1.09,4.38-3.6,3.39-6.4-.84-2.34-3.61-4.2-6.64-3.13ZM78.94,189.68l2.34,6.55c.04.11.03.24-.04.32-.04.05-.12.13-.29.13-.09,0-.47,0-.85-.02-.37,0-.75-.01-.85-.01-.19,0-.45-.01-.55-.31l-1.53-4.28s-.03-.07-.1-.05c-.02,0-.13.03-.31.08-.69.17-2.52.62-2.7.68,0,0,0,0,0,0,.01.01.03.03.05.03.23.15.86.53,1.45,2.18.69,1.94-.35,4.66-3,5.6-1.26.45-2.68.43-3.9-.06-1.3-.52-2.28-1.53-2.74-2.84-1.02-2.87-.24-4.35.02-4.83.1-.19.21-.39.51-.28.03,0,.13.05.26.09.48.18,1.61.6,1.75.64.04.01.15.05.19.16.05.14-.05.25-.13.32-.02.02-.04.04-.06.06,0,0-.02.02-.04.04-.81.82-.63,1.98-.33,2.8.64,1.78,2.29,1.91,3.51,1.47,1.21-.43,1.9-1.72,1.51-2.82-.29-.82-.83-1.36-1.58-1.59h-.02c-.16-.06-.23-.09-.29-.25l-.03-.08c-.03-.08-.16-.5-.29-.9-.1-.32-.21-.65-.22-.7-.04-.11-.04-.2,0-.28.05-.09.13-.15.25-.18.35-.09,7.39-1.92,7.5-1.96.21-.05.44.1.5.26ZM72.21,176.7c.82-.2,1.36-.33,1.47-.37.28-.1.52.05.59.24l2.61,7.31c.07.2.04.45-.17.52l-2.04.73h-.05s-3.4-.96-6.07-1.41c-2.65-.44-5.17-.16-6.5.31-.26.09-.44.04-.51-.17l-.89-2.49c-.04-.11-.03-.21,0-.28.06-.11.19-.16.29-.18,1.04-.24,3.36-.54,7.3.24,2.72.53,4.5,1.17,5.25,1.45.16.05.3.11.34.11,0,0,0,0,0,0l-1.93-5.41c-.05-.14-.04-.27.02-.38.05-.1.15-.18.28-.21h.01ZM70.62,168.02l.18.22c.32.38,1.17,1.39,1.22,1.44.03.04.05.07.07.11.03.08.06.27-.28.4l-13,4.64c-.27.09-.49,0-.58-.25l-.64-1.79c-.08-.24.02-.44.26-.52l12.24-4.37c.21-.08.39-.03.53.14ZM61.83,159.46l-.51-1.43,4.49-1.6s0,0,0,0l.49,1.36c.24.67-.28,1.67-1.71,2.18-1.34.48-2.47.27-2.75-.51ZM66.31,154.54l-6.51,2.32c-.13.05-.18.17-.13.32l1.07,3c.48,1.35,2.26,2.34,4.6,1.5,2.19-.78,2.76-2.81,2.19-4.41l-.92-2.6c-.04-.12-.18-.18-.3-.14ZM61.83,145.14l.33-.04c.29-.03.67-.07.75-.08.13-.01.32,0,.41.26l1.93,5.42c.07.2-.04.32-.14.39-.03.02-.1.06-.18.11-.38.24-.76.47-.83.51-.06.03-.14.07-.23.03-.07-.03-.12-.09-.15-.18l-.79-2.22s0,0,0,0l-7.73,2.76s-.01,0-.02,0c-.04.02-.12.05-.2.01-.06-.03-.11-.08-.14-.17l-.52-1.45c-.08-.23.08-.28.17-.32l7.76-2.76s0-.02-.01-.03c-.01-.03-.14-.4-.29-.8-.18-.51-.39-1.09-.42-1.15-.02-.06-.02-.12.02-.17.06-.1.19-.1.27-.11,0,0,.02,0,.03,0ZM61.49,139c.49,1.37-.15,2.68-.26,2.81,0,0-.01.02-.02.03-.07.1-.15.16-.34.1h-.04c-1.05-.32-1.22-.39-1.26-.4-.01,0-.03,0-.04-.02-.08-.03-.18-.07-.22-.17-.02-.05-.02-.13.06-.22.01-.01.04-.04.06-.06.2-.2.68-.66.4-1.44-.28-.78-.99-1.22-1.62-.99-.65.23-.68.84-.72,1.68,0,.18-.02.36-.03.55,0,.06-.01.12-.02.19-.08,1.05-.18,2.5-2.14,3.2-2.12.76-3.89-.59-4.48-2.23-.84-2.37.06-3.27.35-3.57.12-.12.23-.2.4-.12.11.05,1.22.58,1.22.58h.02s.01.02.01.02c.01,0,.04.04.06.09.02.05.03.14-.03.25-.01.02-.03.05-.07.09-.19.24-.75.97-.37,2.04.32.89,1.08,1.26,1.95.95.91-.33.98-.78,1.08-2.33h0c.1-1.52.17-2.62,2.02-3.28,1.79-.64,3.46.65,4.03,2.26ZM47.21,129.79l9.18-3.27c.14-.05.31.03.37.17l1.68,4.71c.02.06.02.11-.02.16-.04.06-.11.1-.22.11-.02,0-.09.01-.17.02-.44.05-.92.11-1,.11-.18.01-.33-.1-.39-.27l-.99-2.76s-.09-.03-.15-.01l-2.14.76s0,0,0,0l.98,2.76c.04.1,0,.24-.16.29l-1.03.37c-.11.04-.25.02-.31-.17l-.97-2.72s0,0-.02,0l-2.77.99s0,0-.01,0l1.11,3.11c.04.12,0,.24-.1.31l-.07.04c-.36.21-.85.5-.9.53-.08.05-.17.06-.24.03-.06-.02-.1-.06-.12-.12l-1.73-4.84c-.04-.11-.01-.26.19-.33Z"/><g class="cls-24"><g class="cls-21"><path class="cls-15" d="M90.4,185.49c16.4-8.01,21.61,1.28,29.91,2.41"/><path class="cls-3" d="M91.61,188.31c14.11-6.85,20.7,1.04,26.83,2.56"/><path class="cls-4" d="M93.16,191.16c12.07-6.07,20.17,1.79,23.55,2.26"/><path class="cls-2" d="M94.75,193.77c10.6-4.19,17.41,1.72,20.08,2.26"/><path class="cls-2" d="M96.41,196.67c2.1-.74,7.47-2.74,16.63,1.93"/><path class="cls-5" d="M98.1,199.41c1.99-.4,5.91-1.52,13.05,1.72"/><path class="cls-6" d="M99.91,202.39s5.01-.84,9.31,1.35"/><path class="cls-7" d="M102.05,205.67s2.87-.27,5.21.68"/><path class="cls-16" d="M89.03,182.63s11.03-5.3,17.16-3.32"/><path class="cls-7" d="M116.89,183.54c.08,0,3.55,1.47,5.25,1.65"/><path class="cls-14" d="M87.56,179.79c1.93-.79,11.33-4.61,15.06-4.34"/><path class="cls-13" d="M86.32,176.93c1.67-.63,11.36-4.64,13.84-4.56"/><path class="cls-12" d="M85.02,174.09c1.72-.71,11.26-4.54,13.39-4.66"/><path class="cls-19" d="M83.63,171.17c1.74-.43,12.1-4.71,12.98-4.64"/><path class="cls-20" d="M82.39,168.15c2.1-.28,10.83-3.98,12.58-4.49"/><path class="cls-18" d="M81.14,165.06c2.48-.23,11-3.85,12.45-4.28"/><path class="cls-18" d="M79.85,161.94c3.52-.23,11.24-3.64,12.69-4.07"/><path class="cls-18" d="M78.41,158.58c3.5.46,11.73-3.21,12.47-3.47"/><path class="cls-18" d="M77.22,155.35c4.18.54,11.37-2.74,12.29-3.08"/><path class="cls-18" d="M75.97,152.04c5.07.52,11.17-2.15,12.27-2.55"/><path class="cls-18" d="M74.5,148.49c4.99,1.22,11.49-1.54,12.52-1.88"/><path class="cls-17" d="M73.12,144.79c4.11,1.4,10.16.17,12.64-1.12"/><path class="cls-17" d="M71.48,140.87c4.06,1.26,6.92,2.05,12.99-.15"/><path class="cls-17" d="M70.21,137.17c1.88.62,7.03,2.74,13.03.64"/><path class="cls-17" d="M68.76,133.24c2.9,1.1,7.95,3.26,13.19,1.52"/><path class="cls-17" d="M67.25,129.26c2.27.88,8.02,3.69,13.35,2.51"/><path class="cls-10" d="M65.69,125.18c2.41,1.01,8.58,4.19,13.61,3.43"/><path class="cls-10" d="M64.16,121.17c3.01,1.27,9.22,4.57,13.82,4.09"/><path class="cls-10" d="M62.6,117.2c2.77,1.15,11.6,5.28,13.89,4.58"/><path class="cls-10" d="M61.08,113.25c2.5.95,11.73,5.31,13.86,5.1"/><path class="cls-9" d="M59.55,109.58c2.84.36,11.38,4.86,14.04,5.19"/><path class="cls-9" d="M58.68,105.86c2.84.36,11.38,4.86,14.04,5.19"/><path class="cls-9" d="M57.03,102.24c3.77,0,11.38,4.51,14.04,4.84"/><path class="cls-9" d="M55.93,98.69c3.77-.07,11.46,4.3,14.12,4.59"/><path class="cls-9" d="M54.56,95.4c3.31-.84,10.41,3.01,12.34,3.52"/><path class="cls-11" d="M58.72,79.08s-5.8-1.14-9.91.81"/><path class="cls-11" d="M57.08,75.49s-5.13-.67-9.46,1.41"/><path class="cls-8" d="M49.72,82.9s4.8-2.1,10.44,0"/><path class="cls-8" d="M61.93,86.78s-5.75-2.81-11.06-.74"/><path class="cls-9" d="M51.85,89.15s5-1.69,11.56,1.55"/><path class="cls-9" d="M53.43,92.26s4.18-1.24,11.78,2.57"/></g><path class="cls-11" d="M46.47,73.92s4.17-1.89,9.37-1.92"/><path class="cls-11" d="M45.25,71s5-2.08,9.27-2.31"/><path class="cls-11" d="M44.19,68.09s4.27-1.89,8.92-2.6"/><path class="cls-11" d="M43.03,65.2s5.42-2.28,8.85-2.79"/><path class="cls-11" d="M41.88,62.31s5.74-2.34,8.66-2.98"/><path class="cls-11" d="M40.72,59.46s5.55-2.41,8.69-3.14"/><path class="cls-11" d="M39.63,56.54s5.9-2.34,8.69-3.24"/><path class="cls-11" d="M38.51,53.62s6-2.37,8.4-3.21"/></g><path class="cls-28" d="M297.86,20.96c11.1,5.08,18.22,11.51,19.52,12.48-.59-2.87-2.78-16.67-4.04-25.25,6.47,4.5,21.49,14.91,26.42,18.3C341.78,20.29,348.76.03,348.76.03c0,0,12.59,20.4,14.75,23.72,2.63-2.75,17.7-19.51,21.59-23.75.66,9.64,1.55,23.44,1.76,25.51.77-1.03,6.54-9.11,16.2-16.56-4.19,8.25-6.19,19.64-7.08,28.8-9.51-2.66-19.53-4.08-29.89-4.08-19.86,0-38.5,5.23-54.62,14.39-2.93-8.83-7.52-19.83-13.61-27.09ZM413.61,135.79l-.02-14.19s-6.34-2.04-13.11-7.29c-13.6,2.06-30.07,15.74-30.07,15.74,0,0,5.57,10.56,11.65,21.94,10.71,1.47,26.47-12.02,31.55-16.2ZM427.29,161.54s-1.09-5.87-5.74-11.36l-10.61.26s-14.31,12.3-23.04,12.58c0,0,4.81,8.95,7.23,13.62,4.81-1.04,13.26-4.84,16.67-8.8,0,0,2.25,7.26,1.82,15.82,4.78-2.79,11.38-10.29,13.68-22.13ZM431.65,114.88c-5.35,4.51-9.89,7-9.89,7l.05,14.26c3.84,4.27,7.62,7.81,10.44,14.25,5.36-9.64,4.34-23.85-.6-35.51ZM432.82,102.17l.84-6.48c.28-3.57-.63-9.48-5.63-15.63-6.2-6.95-21.78-18.15-29.21-20.84,0,0-.61,7.17-3.17,10.62-14.81-10.69-22.08-13.37-22.08-13.37-16.26,2.32-26.71,8.6-32.39,13.52l4.95,4.21c-9.8,3.02-16.16,11.44-16.16,11.44.06.14,8.75,1.39,8.75,1.39,0,0-.89,10.21,11.89,16.6,10.93,5.47,26.68-1.32,41.49,4.63-9.75-11.25-16.47-16.28-16.47-16.28,0,0-3.88-.81-6.61-.79-3.4.02-8.47.7-14.04-1.47-2.65-1.03-5.75-2.87-8.18-4.39,0,0,6.84-7.02,16.83-8.58,0,0,9.01,2.53,16.15,7.82,4.75-4.62,9.7-4.48,9.7-4.48,0,0-4.9,4.59-3.42,10.14,7.14,6.36,14.87,15.47,14.87,15.47,7.88-4.32,25.01-3.33,28.53.75-4.46-5.77-10.89-10.61-15.86-14.74-.6-2.16-6.03-9.73-6.95-10.42,0,0,5.16,1.6,9.76,5.73,1.33-1.88,3.8-3.81,7.18-4.65,3.47,2.91,4.08,7.37,3.99,8.13-1.57,1.86-3.1,2.63-3.1,2.63l8.34,9.03.84-6.48M441.13,107.46c12.72,23.51,15.81,51.67,6.98,79.73-.53-.6-7.26-8.12-10.05-11.2-1.77,27.44-9.84,48.74-33.41,66.74,0,0-2.24-8.62-3.55-14.01-38.85,28.48-72.27,15.46-81.65,10.77,7.27-33.35,1.64-52.49-3.23-67.1-10.34,16.99-20.94,30.19-31.51,39.1-7.22-16.88-7.79-48.25-1.94-66.78-1.94.52-13.36,4.13-19.69,6.05,2.55-17.01,13.79-39.8,25.66-51.14-2.07-.37-8.16-1.23-12.98-2.03,2.97-6.04,11.57-17.25,24.78-27.78-.38,7.41,2.36,16.26,10.75,20.51-5.32-9.32-5.96-20.83-.42-26.8,5.57-6,14.9-3.94,20.86.73-1.1-3.24-3.5-6.99-7.04-9.46,16.45-7.65,36.41-12.09,59.05-8.6,3.49,3.05,7.22,7.33,9.28,9.98.09-1.9-.18-5.55-.78-8.32,9.26,2.19,18.92,5.73,28.94,10.91-17.83-17.79-53.97-23.14-84.12-14.5-7.07,2.02-13.78,4.7-20.09,7.86-6.65.08-10.93,4.15-13.38,7.75-19.3,12.8-33.45,29.65-40.26,43.76,1.51.33,6.09.89,10.31,1.62-8.62,12.31-19.89,35.59-19.15,56.49,1.96-.59,12.49-3.82,17.66-5.49-2.76,18.44-1.96,49.42,10.01,67.14,15.07-10.68,23.8-21.88,31.06-32,1.87,9.11,3.69,25.29-2.73,52.12,5.21,4.02,42.98,23.86,85.7-2.06l3.57,14.08,4.62-3c26-16.89,35.98-39.71,39.46-58.28,1.2,1.33,5.93,6.5,7.62,8.22,6.52-17.8,19.57-60.6-10.33-95Z"/></g></g></g></svg>